<?xml version="1.0" encoding="UTF-8" standalone="no"?>
<!-- Generator: Adobe Illustrator 27.5.0, SVG Export Plug-In . SVG Version: 6.00 Build 0)  -->

<svg
   version="1.1"
   id="Layer_1"
   x="0px"
   y="0px"
   viewBox="0 0 76.202516 173.10328"
   xml:space="preserve"
   sodipodi:docname="cocoon_black.svg"
   inkscape:version="1.3.2 (1:1.3.2+202311252150+091e20ef0f)"
   inkscape:export-filename="cocoon_black.png"
   inkscape:export-xdpi="705.84253"
   inkscape:export-ydpi="705.84253"
   width="76.202515"
   height="173.10327"
   xmlns:inkscape="http://www.inkscape.org/namespaces/inkscape"
   xmlns:sodipodi="http://sodipodi.sourceforge.net/DTD/sodipodi-0.dtd"
   xmlns="http://www.w3.org/2000/svg"
   xmlns:svg="http://www.w3.org/2000/svg"><defs
   id="defs42"><inkscape:path-effect
   effect="simplify"
   id="path-effect8"
   is_visible="true"
   lpeversion="1.3"
   threshold="100"
   steps="1"
   smooth_angles="360"
   helper_size="0"
   simplify_individual_paths="false"
   simplify_just_coalesce="false" /><inkscape:path-effect
   effect="simplify"
   id="path-effect7"
   is_visible="true"
   lpeversion="1.3"
   threshold="100"
   steps="1"
   smooth_angles="360"
   helper_size="0"
   simplify_individual_paths="false"
   simplify_just_coalesce="false" /><inkscape:path-effect
   effect="simplify"
   id="path-effect6"
   is_visible="true"
   lpeversion="1.3"
   threshold="100"
   steps="1"
   smooth_angles="360"
   helper_size="0"
   simplify_individual_paths="false"
   simplify_just_coalesce="false" />
	
	
	
	
	
	
	
	
	
	
	
	
	
	
	
	
	
	
	
	
	
	
	
	
	
	
	
	
	
	
	

		
		
		
		
		
		
		
		
		
	</defs><sodipodi:namedview
   id="namedview42"
   pagecolor="#ffffff"
   bordercolor="#666666"
   borderopacity="1.0"
   inkscape:showpageshadow="2"
   inkscape:pageopacity="0.0"
   inkscape:pagecheckerboard="0"
   inkscape:deskcolor="#d1d1d1"
   inkscape:zoom="7.658021"
   inkscape:cx="19.84847"
   inkscape:cy="37.411754"
   inkscape:window-width="1600"
   inkscape:window-height="843"
   inkscape:window-x="0"
   inkscape:window-y="0"
   inkscape:window-maximized="1"
   inkscape:current-layer="Layer_1" />
<path
   style="fill:#000000;fill-opacity:1;stroke-width:1.30175"
   d="m 74.657135,79.8962 c 0.15621,-6.620692 1.17418,-13.156769 0.51159,-19.789177 -0.60011,-5.997154 -2.61261,-11.731354 -6.12212,-16.649359 -3.098163,-4.34133 -7.224709,-7.865163 -11.801656,-10.571497 -2.711541,-1.602452 -5.596215,-2.853432 -8.560296,-3.903943 -2.40563,-0.851343 -5.432195,-1.619375 -6.694891,-4.084886 -1.123408,-2.194747 -1.015363,-4.938833 -0.995837,-7.383516 0.07941,-0.312419 0.149701,-0.626141 0.188753,-0.947672 0.118459,-0.977613 -0.251237,-2.048952 -1.339499,-2.224688 -0.984121,-0.158813 -1.978657,0.343662 -2.884674,0.654779 -0.887792,0.304609 -1.895345,0.623538 -2.39782,1.485295 -0.768031,1.314766 -0.07941,2.928933 -0.154908,4.337425 -0.0026,0.04686 0.01302,0.0755 0.03905,0.08982 -0.382714,4.263225 -1.202816,8.59284 -3.388451,12.236433 -1.594641,2.659471 -3.970332,4.863331 -6.096087,7.093226 -2.141376,2.246817 -4.263225,4.532687 -5.984136,7.125769 -3.415787,5.147113 -5.321547,11.172905 -6.57513,17.175266 -1.312163,6.287444 -1.851086,12.71027 -1.977356,19.125285 -0.256444,13.104699 1.027079,26.24063 2.074987,39.29066 1.014062,12.62826 2.520184,25.15368 5.826625,37.40964 1.027079,3.80631 2.362673,8.06172 5.502489,10.67694 3.845365,3.2036 9.561341,2.11794 13.840187,0.46732 5.389238,-2.07759 10.080738,-5.70035 14.397335,-9.4611 3.876606,-3.37674 7.908121,-6.59466 11.562128,-10.21873 3.521237,-3.49128 6.689687,-7.43037 8.609767,-12.04247 2.31711,-5.56627 2.13357,-11.74047 2.43037,-17.66082 0.35277,-7.03855 0.58057,-14.08882 0.51549,-21.13778 -0.0664,-7.033341 -0.69253,-14.056272 -0.52591,-21.09222 z"
   id="path1" /><path
   style="fill:#030201;fill-opacity:1;stroke-width:1.30175"
   d="m 74.258805,68.824831 c -0.13539,3.294725 -0.52331,6.571225 -0.65218,9.86595 -0.13538,3.463952 -0.0651,6.933111 0.0521,10.395761 0.23562,6.985181 0.4478,13.943018 0.27727,20.932098 -0.16662,6.86933 -0.53762,13.73215 -0.93595,20.59106 -0.15621,2.70763 -0.5194,5.32415 -1.43323,7.89119 -0.83832,2.35617 -2.03723,4.56003 -3.46525,6.61028 -2.856041,4.10181 -6.559515,7.54493 -10.304644,10.82013 -3.98335,3.48348 -7.919836,7.13228 -12.235132,10.20311 -4.701914,3.34549 -10.399666,6.40329 -16.355164,6.01017 -4.414228,-0.29159 -7.017725,-3.97424 -8.508226,-7.76753 -0.7446,-1.89665 -1.282222,-3.8649 -1.787301,-5.83574 -0.710754,-2.77142 -1.39287,-5.54675 -1.959131,-8.35072 -1.316067,-6.51785 -2.162203,-13.12292 -2.813078,-19.7384 -0.650874,-6.61679 -1.109089,-13.2505 -1.614167,-19.8803 -0.484251,-6.35644 -0.945069,-12.719375 -1.115598,-19.094037 -0.330645,-12.516309 0.209581,-25.772011 4.990902,-37.513779 1.172875,-2.880769 2.66598,-5.635268 4.557421,-8.109892 1.937001,-2.534503 4.213758,-4.785226 6.395488,-7.104941 1.923984,-2.045047 3.863589,-4.113525 5.117173,-6.651934 1.145538,-2.318413 1.83937,-4.826882 2.270248,-7.370498 0.433483,-2.559237 0.511588,-5.119776 0.391827,-7.706349 -0.0039,-0.07941 -0.04426,-0.115856 -0.09503,-0.132779 0.294195,-0.706849 1.016665,-0.980216 1.710497,-1.222341 0.803179,-0.281178 1.698782,-0.740695 2.564444,-0.734186 0.963294,0.0078 1.261394,0.891697 1.1911,1.707894 -0.256445,0.06509 -0.518096,0.277272 -0.518096,0.533716 0.0026,2.587876 -0.272065,5.322849 0.728979,7.783153 0.943767,2.319715 3.160645,3.475668 5.399652,4.295769 2.935442,1.075244 5.857866,2.071081 8.63059,3.539453 2.41995,1.282222 4.72795,2.800061 6.855006,4.523575 4.213757,3.414486 7.63866,7.753213 9.8269,12.725891 2.6022,5.917747 3.09556,12.397849 2.83261,18.784226 z"
   id="path2" /><path
   style="fill:#8fa32e;stroke-width:1.30175"
   d="m 69.950015,131.655 c -0.28508,0.20958 -0.62224,0.31112 -0.95418,0.42437 -0.39573,0.13408 -0.80448,0.2239 -1.21193,0.31112 -0.77063,0.16402 -1.55038,0.18355 -2.324924,0.30461 -0.170529,0.0273 -0.384016,0.32674 -0.141891,0.41265 0.381412,0.13408 0.741995,0.10414 1.139035,0.0599 0.45561,-0.0508 0.90862,-0.13278 1.35382,-0.24212 0.81619,-0.19917 1.63239,-0.522 2.28326,-1.06483 0.16012,-0.13408 0.0326,-0.33455 -0.14319,-0.20568 z"
   id="path21" /><path
   style="fill:#8fa32e;stroke-width:1.30175"
   d="m 68.458215,136.90235 c -0.46082,0.10284 -0.93336,0.11065 -1.40199,0.12757 -0.24082,0.008 -0.48034,0.009 -0.72116,0.007 -0.27207,-0.003 -0.546743,-0.0104 -0.791471,0.11846 -0.115855,0.0612 -0.272065,0.24082 -0.122364,0.35668 0.196564,0.151 0.477742,0.11976 0.714665,0.10674 0.27987,-0.0156 0.55845,-0.0365 0.83702,-0.0638 0.5168,-0.0534 1.02838,-0.17573 1.51003,-0.3723 0.1471,-0.0612 0.18875,-0.32674 -0.0247,-0.27987 z"
   id="path22" /><path
   style="fill:#8fa32e;stroke-width:1.30175"
   d="m 65.953642,140.25175 c -0.16532,-0.003 -0.331943,-0.005 -0.498567,-0.007 -0.170529,-0.003 -0.341058,0.0182 -0.511587,0.0325 -0.118459,0.009 -0.251237,0.0781 -0.286384,0.20047 -0.03254,0.11455 0.02864,0.19917 0.145795,0.20828 0.162719,0.0143 0.326739,0.0351 0.489458,0.0325 0.167925,-0.003 0.334549,-0.005 0.502475,-0.007 0.13148,-0.003 0.283783,-0.0937 0.321533,-0.2252 0.0365,-0.12366 -0.0299,-0.23431 -0.162723,-0.23561 z"
   id="path23" /><path
   style="fill:#000000;fill-opacity:0;stroke-width:1.30175"
   d="m 74.258805,68.824831 c 0.26295,-6.386377 -0.23041,-12.866479 -2.83261,-18.780321 -2.18824,-4.972678 -5.614443,-9.311405 -9.826898,-12.725891 -2.127056,-1.723514 -4.436358,-3.241353 -6.855006,-4.523575 -2.771422,-1.469673 -5.695148,-2.465511 -8.63059,-3.539453 -2.239007,-0.820101 -4.454583,-1.976054 -5.399652,-4.295769 -1.001044,-2.459002 -0.726376,-5.193975 -0.728979,-7.783152 0,-0.256445 0.26035,-0.46863 0.518096,-0.533717 0.07029,-0.816196 -0.227806,-1.700083 -1.1911,-1.707894 -0.865662,-0.0065 -1.762567,0.451707 -2.564444,0.734186 -0.693832,0.243427 -1.416302,0.515492 -1.710497,1.222342 0.05077,0.01692 0.09112,0.05337 0.09503,0.132778 0.119761,2.587875 0.04166,5.148414 -0.391827,7.706349 -0.430878,2.543616 -1.12471,5.052085 -2.270248,7.370499 -1.253584,2.53971 -3.193189,4.606887 -5.117173,6.651933 -2.18173,2.319715 -4.457185,4.570438 -6.395488,7.104942 -1.891441,2.474623 -3.384546,5.229122 -4.557421,8.109891 -4.781321,11.741769 -5.321547,24.997471 -4.988299,37.512478 0.170529,6.374658 0.630046,12.736293 1.114296,19.094033 0.505079,6.6285 0.964596,13.26351 1.614168,19.8803 0.650874,6.61548 1.497011,13.22055 2.813078,19.73841 0.566261,2.80526 1.248377,5.57929 1.959131,8.35071 0.505078,1.97085 1.0427,3.94039 1.7873,5.83574 1.4892,3.79329 4.092697,7.47594 8.508227,7.76753 5.955498,0.39313 11.65325,-2.66338 16.355164,-6.01017 4.315295,-3.07083 8.251782,-6.72093 12.235131,-10.2031 3.74513,-3.2752 7.448604,-6.71702 10.304641,-10.82013 1.42672,-2.05026 2.62563,-4.25412 3.46525,-6.61028 0.91383,-2.56705 1.27572,-5.18356 1.43323,-7.8912 0.39703,-6.85891 0.76803,-13.72173 0.93595,-20.59105 0.17053,-6.99039 -0.0417,-13.948226 -0.27727,-20.932105 -0.11716,-3.46265 -0.18745,-6.931809 -0.0521,-10.395761 0.12757,-3.297328 0.51549,-6.57513 0.65088,-9.868553 z M 44.202734,133.62715 c -0.167925,3.39366 -0.279876,6.78471 -0.684719,10.16275 -0.453009,3.78418 -1.029683,8.03699 -3.111179,11.32391 -0.770635,1.21713 -1.8615,2.33663 -3.311647,2.67118 -1.700083,0.39313 -3.387149,-0.33845 -4.774812,-1.27571 -4.38559,-2.96408 -6.990388,-8.13853 -8.970347,-12.90683 2.186937,6.7769 5.006523,13.37155 7.852145,19.89331 0.221297,0.50768 -0.139287,1.08826 -0.730281,0.95028 -5.041671,-1.18329 -8.105986,-5.63918 -9.989616,-10.15754 -1.934397,-4.63943 -2.908105,-9.63815 -3.690456,-14.58219 -0.863059,-5.45172 -1.658427,-10.92557 -2.32362,-16.40463 -1.644108,-13.54469 -2.529297,-27.44084 -0.876077,-41.040204 -0.169227,-1.86931 -0.214788,-3.769863 0.141891,-5.605328 0.359282,-1.848482 1.468372,-3.898736 3.61886,-3.859683 1.175478,0.02213 2.326224,0.549338 3.353303,1.073942 1.215833,0.620934 2.363975,1.372043 3.492591,2.136169 2.34575,1.589435 4.593869,3.260879 6.6272,5.247347 8.998985,8.795913 12.488972,21.080497 13.383273,33.316937 0.464724,6.34211 0.307212,12.71157 -0.0065,19.05629 z M 34.670032,73.311957 c -5.002618,-1.141633 -9.997426,-3.25437 -14.078407,-6.39679 -1.581624,-1.217135 -2.940649,-2.585272 -3.620161,-4.501446 -0.605313,-1.707893 -0.554545,-3.575902 -0.177038,-5.326753 0.907318,-4.196837 3.531643,-7.964096 6.206735,-11.232786 1.80162,-2.201256 3.77507,-4.303579 5.90473,-6.211942 1.848483,-2.982305 4.315295,-5.732899 7.52801,-6.832876 2.457701,-0.842231 5.083327,0.0768 7.199969,1.381155 2.201256,1.357723 4.174707,3.208809 5.752425,5.255157 2.504564,3.250465 4.338727,7.124468 5.575388,11.023204 1.28092,4.034117 1.957829,8.448346 1.102581,12.641277 -0.830516,4.075773 -3.354605,7.485052 -7.077605,9.369983 -4.392099,2.223386 -9.648558,1.896647 -14.316627,0.831817 z m 32.659563,29.804813 c -0.11976,3.88963 0.043,7.78316 -0.20307,11.66888 -0.24213,3.81412 -0.77845,7.79747 -2.673796,11.18071 -0.200469,0.35798 -0.730281,0.42697 -1.015363,0.13018 -1.06483,-1.10779 -1.589435,-2.63604 -1.968244,-4.0953 -0.460819,-1.77689 -0.709452,-3.60324 -0.964595,-5.41918 -0.210883,-1.49962 -0.387921,-3.01876 -0.760221,-4.48973 -0.562355,-2.21818 -1.368137,-4.40642 -2.140074,-6.55821 -1.469674,-4.094 -3.242655,-8.016151 -5.123681,-11.931814 -1.399379,-2.914614 -3.207508,-6.715719 -1.331688,-9.815181 1.170271,-1.933096 3.160644,-3.007038 5.117172,-4.074472 1.76517,-1.763869 3.966426,-3.132006 6.250995,-2.199954 1.401982,0.572769 2.307999,1.907061 2.895088,3.24656 0.924247,2.112737 1.287427,4.446771 1.582927,6.719624 0.67431,5.187466 0.49467,10.425702 0.33455,15.637887 z"
   id="path27" /><path
   style="fill:#3d3d3d;fill-opacity:1;stroke-width:1.30175"
   d="m 74.258805,68.824831 c 0.26295,-6.386377 -0.23041,-12.866479 -2.83261,-18.780321 -2.18824,-4.972678 -5.614443,-9.311405 -9.826898,-12.725891 -2.127056,-1.723514 -4.436358,-3.241353 -6.855006,-4.523575 -2.771422,-1.469673 -5.695148,-2.465511 -8.63059,-3.539453 -2.239007,-0.820101 -4.454583,-1.976054 -5.399652,-4.295769 -1.001044,-2.459002 -0.726376,-5.193975 -0.728979,-7.783152 0,-0.256445 0.26035,-0.46863 0.518096,-0.533717 0.07029,-0.816196 -0.227806,-1.700083 -1.1911,-1.707894 -0.865662,-0.0065 -1.762567,0.451707 -2.564444,0.734186 -0.693832,0.243427 -1.416302,0.515492 -1.710497,1.222342 0.05077,0.01692 0.09112,0.05337 0.09503,0.132778 0.04166,0.899508 0.04816,1.793809 0.03515,2.686808 0.545432,0.10414 1.09477,0.226505 1.602452,0.482949 1.762567,0.890396 1.703988,3.102066 1.864103,4.807356 0.08852,0.947673 0.219996,1.887535 0.722471,2.712843 0.580579,0.955483 1.377249,1.731325 2.31581,2.335337 1.796412,1.157254 3.884416,1.745644 5.825323,2.603496 3.703473,1.637599 7.442094,3.51472 10.44002,6.286142 2.587876,2.392613 4.261924,5.498584 5.384031,8.807628 1.183289,3.487384 1.830258,7.250738 1.70529,10.937289 -0.106743,3.177567 -0.88649,6.033603 -2.707636,8.648815 -1.964338,2.820888 -4.367365,5.37622 -6.986483,7.598304 -2.416044,2.050253 -5.239536,4.130447 -8.391069,4.833391 -3.903942,0.87087 -7.164822,-1.785999 -10.436115,-3.46265 -3.733414,-1.91357 -7.759721,-3.187982 -11.900582,-3.806312 2.741482,2.240309 5.587103,4.353046 8.288231,6.642821 2.784439,2.36007 5.385332,4.95185 7.449905,7.97451 2.255929,3.302535 4.174706,6.782108 5.699053,10.481677 0.46863,1.139026 0.887793,2.296276 1.282222,3.460041 1.066132,2.63213 1.959131,5.33586 2.65817,8.07734 2.167411,8.49912 2.74018,17.4239 1.892742,26.14562 -0.410051,4.22157 -1.149444,8.4158 -2.276758,12.50589 -1.218436,4.41553 -2.85994,8.75165 -5.374918,12.60223 -4.316597,6.61418 -13.28434,13.12162 -20.988086,7.88338 -0.32023,-0.21739 -0.627443,-0.45301 -0.93075,-0.69253 1.558193,2.44729 3.773768,4.36086 6.904472,4.56784 5.955498,0.39312 11.65325,-2.66338 16.355165,-6.01017 4.315295,-3.07083 8.251782,-6.72093 12.235131,-10.20311 3.74513,-3.2752 7.448603,-6.71702 10.304646,-10.82013 1.42672,-2.05025 2.62563,-4.25411 3.46525,-6.61028 0.91383,-2.56704 1.27572,-5.18356 1.43323,-7.89119 0.39703,-6.85891 0.76803,-13.72173 0.93596,-20.59106 0.17053,-6.99038 -0.0417,-13.948219 -0.27728,-20.932098 -0.11715,-3.46265 -0.18745,-6.931809 -0.0521,-10.395761 0.12627,-3.294725 0.51419,-6.572527 0.64958,-9.86595 z m -3.06822,27.283341 c -0.33716,5.406148 -0.71466,10.817518 -1.33299,16.198948 -1.19631,10.41008 -3.55248,20.81495 -9.265851,29.74625 -0.287686,0.4491 -1.047907,0.41005 -1.181987,-0.15491 -0.557149,-2.34966 -0.432181,-4.79174 -0.316325,-7.18435 0.119761,-2.47593 0.07029,-4.90499 -0.05337,-7.37961 -0.277272,-5.54935 -0.712056,-11.08699 -2.048952,-16.49445 -1.14684,-4.63683 -2.823491,-9.12656 -4.804752,-13.467881 -0.972406,-2.12966 -2.002089,-4.23719 -3.108575,-6.300461 -0.6704,-1.25098 -1.523045,-2.561841 -1.80943,-3.971634 -0.550639,-2.711541 2.124453,-4.362158 4.010686,-5.735502 2.324923,-1.694877 4.795641,-3.21662 7.340558,-4.558723 2.483736,-1.31086 5.275986,-2.714145 8.126818,-2.902898 0.39182,-0.02604 0.78365,0 1.16767,0.05988 0.84613,-0.295497 1.7183,-0.279876 2.44598,0.453009 1.12731,1.137728 1.20021,3.137213 1.24838,4.632922 0.17964,5.695148 -0.0638,11.377279 -0.41786,17.05941 z"
   id="path28" /><path
   style="opacity:0.56;fill:#badc9f;stroke-width:3;stroke-dasharray:none"
   d="m 25.247979,112.11446 c 2.095814,-11.47491 2.716748,-23.637136 -3.743828,-34.015975 -0.512889,-0.824006 -1.072641,-1.642806 -1.851086,-2.224687 -3.531643,-2.637342 -4.717536,2.358767 -4.867237,4.911496 -0.589692,10.023461 -0.449103,20.382766 0.06769,30.404926 0.285083,5.52331 1.033588,11.03101 1.674048,16.52179 0.640461,5.49858 1.524348,10.93989 2.790949,16.32912 0.577976,2.46291 1.155952,4.94144 1.821145,7.38222 0.570166,2.0893 1.323878,4.22157 2.982305,5.69775 0.432181,0.38532 1.291335,-0.23822 1.292636,-0.73288 0.01823,-7.40695 -2.020313,-14.58219 -2.632134,-21.92925 -0.630047,-7.56316 1.115598,-14.95449 2.465511,-22.34451 z"
   id="path30" /><path
   style="fill:#000000;stroke:#000000;stroke-width:1.30175"
   d="M 46.312868,5.7590358 C 46.009561,5.2188103 45.259754,5.1354984 44.713019,5.096446 44.293857,5.066506 43.84996,5.063902 43.398254,5.078221 c -1.08696,-0.1731325 -2.229895,-0.0742 -3.316855,0.027337 -1.287429,0.1197608 -2.565745,0.3553773 -3.821932,0.6625898 -2.362673,0.5779762 -4.610792,1.4983129 -6.7756,2.600893 -0.590993,0.300704 -1.441035,0.705548 -1.645409,1.405888 -0.240824,0.8214032 0.689926,1.2093242 1.282222,1.4774852 1.266601,0.57407 2.600892,1.17678 3.547263,2.237705 0.659987,0.740694 1.030985,1.616771 1.309559,2.559237 0.308514,1.044002 0.508984,2.324922 1.126012,3.283009 0.153607,-0.820102 0.354076,-1.632393 0.546734,-2.438175 0.160116,-0.671702 1.036192,-0.553243 1.247075,0 0.08071,0.210883 0.145796,0.42437 0.201771,0.64046 0.235617,-0.161416 0.568864,-0.106743 0.799274,0.08722 0.0065,-0.05858 0.01171,-0.117157 0.01822,-0.175736 -0.0013,-0.0078 -0.0013,-0.01562 -0.0026,-0.02213 0.0013,0 0.0026,0 0.0052,0 0.0078,-0.05728 0.01041,-0.114554 0.01822,-0.171831 0.04686,-0.321532 0.42437,-0.497268 0.709453,-0.463422 0.03124,0.0039 0.05337,0.01822 0.08201,0.02604 0.07029,-0.298101 0.279876,-0.537622 0.619632,-0.537622 0.35017,0 0.645667,0.296798 0.646969,0.646968 0.0013,1.044002 0.03645,2.086703 0.131477,3.124196 0.04165,-0.03515 0.09242,-0.06248 0.130174,-0.100235 0.494665,-0.498569 0.604012,-1.252281 0.722471,-1.914871 0.259048,-1.444941 0.437387,-2.908106 0.761522,-4.34133 0.325437,-1.442337 0.821403,-2.831303 1.648014,-4.0627562 0.633951,-0.943768 1.500915,-1.457958 2.306697,-2.2207831 0.428276,-0.404844 0.967199,-1.0257777 0.617029,-1.6493151 z"
   id="path31" /><path
   style="fill:#010100;fill-opacity:1;stroke-width:1.30175"
   d="m 44.96686,7.2612537 c -0.549337,0.473836 -1.16897,0.8578521 -1.634995,1.4215091 -0.709453,0.855248 -1.258791,1.8471802 -1.663635,2.8820702 -0.825308,2.110134 -1.011458,4.411625 -1.412396,6.624597 -0.132779,0.734186 -0.209582,1.361628 -1.003648,1.575115 -0.820102,0.221297 -1.866707,0.273367 -2.616514,-0.191357 -1.128616,-0.699039 -1.357724,-2.296284 -1.676652,-3.474366 -0.421766,-1.558193 -1.037493,-2.918519 -2.319715,-3.952107 -0.769333,-0.619633 -1.661031,-1.058322 -2.550125,-1.469674 -0.309816,-0.143192 -1.262696,-0.391826 -1.351214,-0.7914632 -0.07941,-0.355377 0.69253,-0.66259 0.932051,-0.786256 2.054159,-1.055718 4.172103,-1.9070611 6.4033,-2.4993571 1.25098,-0.3319453 2.517581,-0.5844845 3.793294,-0.7953677 -0.03254,0.097631 2.477227,-0.2447287 3.629274,-0.2082797 0.576674,0.018224 1.256187,0.048165 1.778188,0.3267388 0.7446,0.3970332 0.167925,0.9281466 -0.307213,1.3381976 z"
   id="path32" />
<path
   style="fill:none;stroke:#808080;stroke-width:1px;stroke-linecap:round;stroke-linejoin:miter;stroke-opacity:1"
   d="m 60.160127,114.34746 c 3.529137,0.0922 6.119718,-2.71514 9.152878,-4.03652"
   id="path3" /><path
   style="fill:none;stroke:#808080;stroke-width:1px;stroke-linecap:round;stroke-linejoin:miter;stroke-opacity:1"
   d="m 56.997216,103.48863 c 3.529137,0.0922 9.736989,-4.829205 12.770129,-6.150581"
   id="path3-3"
   sodipodi:nodetypes="cc" /><path
   style="fill:none;stroke:#808080;stroke-width:1px;stroke-linecap:round;stroke-linejoin:miter;stroke-opacity:1"
   d="m 53.322373,94.693319 c 3.529137,0.0922 14.136772,-8.045624 17.169912,-9.367004"
   id="path3-3-6"
   sodipodi:nodetypes="cc" /><path
   style="fill:none;stroke:#808080;stroke-width:1px;stroke-linecap:round;stroke-linejoin:miter;stroke-opacity:1"
   d="M 52.70356,73.670485 C 67.99212,71.537018 84.405692,69.590845 97.49988,60.770714"
   id="path6"
   inkscape:path-effect="#path-effect6"
   inkscape:original-d="M 52.70356,73.670485 C 65.410759,72.212994 87.103762,68.701293 97.49988,60.770714"
   sodipodi:nodetypes="cc"
   transform="translate(-34.224538,-3.4764713)" /><path
   style="fill:none;stroke:#808080;stroke-width:1px;stroke-linecap:round;stroke-linejoin:miter;stroke-opacity:1"
   d="M 53.741938,63.744058 C 68.620619,62.467871 82.484745,56.648726 95.242953,49.140665"
   id="path7"
   inkscape:path-effect="#path-effect7"
   inkscape:original-d="M 53.741938,63.744058 C 69.060097,62.01285 79.062423,58.313693 95.242953,49.140665"
   sodipodi:nodetypes="cc"
   transform="translate(-34.224538,-3.4764713)" /><path
   style="fill:none;stroke:#808080;stroke-width:1px;stroke-linecap:round;stroke-linejoin:miter;stroke-opacity:1"
   d="M 56.681085,53.665367 C 67.767366,51.923498 78.68516,48.268075 88.046112,41.979141"
   id="path8"
   inkscape:path-effect="#path-effect8"
   inkscape:original-d="M 56.681085,53.665367 C 67.766926,51.923642 78.685552,48.267924 88.046112,41.979141"
   transform="translate(-34.224538,-3.4764713)" /></svg>
